<?xml version="1.0" standalone="no"?>
<!DOCTYPE svg PUBLIC "-//W3C//DTD SVG 20010904//EN"
 "http://www.w3.org/TR/2001/REC-SVG-20010904/DTD/svg10.dtd">
<svg version="1.0" xmlns="http://www.w3.org/2000/svg"
 width="2000.000000pt" height="2000.000000pt" viewBox="0 0 2000.000000 2000.000000"
 preserveAspectRatio="xMidYMid meet">
<metadata>
Created by potrace 1.15, written by Peter Selinger 2001-2017
</metadata>
<g transform="translate(0.000000,2000.000000) scale(0.100000,-0.100000)"
fill="#000000" stroke="none">
<path d="M9435 19989 c-2958 -168 -5663 -1619 -7445 -3994 -1190 -1587 -1867
-3450 -1980 -5455 -13 -225 -13 -855 0 -1080 78 -1384 416 -2672 1020 -3895
972 -1965 2570 -3563 4535 -4535 1223 -604 2511 -942 3895 -1020 225 -13 855
-13 1080 0 1601 90 3103 537 4471 1328 1700 984 3087 2465 3959 4227 604 1223
942 2511 1020 3895 13 225 13 855 0 1080 -90 1601 -537 3103 -1328 4471 -1082
1869 -2767 3359 -4750 4200 -1073 455 -2186 712 -3372 779 -202 11 -899 11
-1105 -1z m1275 -373 c829 -66 1593 -219 2345 -470 2026 -677 3773 -2015 4970
-3806 850 -1272 1380 -2721 1554 -4251 46 -399 55 -583 55 -1089 0 -593 -22
-911 -100 -1434 -477 -3207 -2575 -5989 -5534 -7339 -1044 -476 -2102 -747
-3300 -844 -305 -24 -1095 -24 -1400 0 -1049 85 -1983 302 -2900 672 -2207
891 -4030 2589 -5066 4720 -545 1121 -846 2238 -951 3525 -24 305 -24 1095 0
1400 79 966 267 1827 585 2677 893 2384 2718 4340 5032 5396 1129 515 2287
793 3585 861 178 9 932 -3 1125 -18z"/>
<path d="M9658 17000 c-1144 -54 -2273 -395 -3253 -983 -997 -598 -1824 -1425
-2422 -2422 -1039 -1733 -1274 -3853 -641 -5784 524 -1600 1610 -2957 3063
-3828 1733 -1039 3853 -1274 5784 -641 1600 524 2957 1610 3828 3063 868 1447
1180 3172 878 4855 -333 1851 -1424 3514 -3000 4567 -1252 837 -2722 1244
-4237 1173z m757 -190 c772 -50 1492 -217 2206 -511 196 -81 622 -293 804
-399 1015 -596 1836 -1410 2447 -2428 119 -199 338 -637 427 -851 351 -852
521 -1709 521 -2621 0 -912 -171 -1770 -521 -2621 -81 -196 -293 -622 -399
-804 -530 -903 -1251 -1671 -2111 -2246 -446 -298 -965 -561 -1468 -744 -1168
-425 -2455 -519 -3686 -269 -859 175 -1689 522 -2424 1013 -860 575 -1581
1343 -2111 2246 -106 182 -318 608 -399 804 -350 851 -521 1709 -521 2621 0
912 171 1770 521 2621 81 196 293 622 399 804 596 1015 1410 1836 2428 2447
199 119 637 338 851 427 704 290 1435 461 2181 510 185 12 672 13 855 1z"/>
<path d="M9730 16470 c-1632 -68 -3153 -736 -4309 -1891 -1021 -1021 -1662
-2327 -1845 -3758 -65 -506 -65 -1136 0 -1642 183 -1431 824 -2737 1845 -3758
1021 -1021 2327 -1662 3758 -1845 505 -65 1137 -65 1642 0 1431 183 2737 824
3758 1845 1021 1021 1662 2327 1845 3758 65 507 65 1135 0 1642 -229 1794
-1191 3401 -2664 4453 -1170 836 -2585 1255 -4030 1196z m785 -200 c884 -80
1683 -315 2436 -716 1103 -588 2015 -1500 2603 -2603 404 -758 635 -1546 718
-2451 16 -177 16 -823 0 -1000 -83 -905 -314 -1693 -718 -2451 -871 -1633
-2439 -2820 -4229 -3198 -475 -101 -823 -136 -1330 -136 -430 1 -651 18 -1030
81 -2436 406 -4415 2210 -5049 4604 -88 332 -152 707 -188 1100 -16 177 -16
823 0 1000 36 393 100 768 188 1100 395 1490 1321 2783 2606 3639 924 615
1962 964 3098 1041 160 11 738 5 895 -10z"/>
<path d="M9690 15014 c-890 -62 -1716 -337 -2440 -811 -744 -488 -1332 -1145
-1730 -1933 -280 -555 -442 -1103 -517 -1755 -25 -213 -25 -817 0 -1030 74
-642 235 -1191 506 -1733 485 -968 1258 -1745 2221 -2232 555 -280 1103 -442
1755 -517 213 -25 817 -25 1030 0 652 75 1200 237 1755 517 1177 595 2074
1633 2491 2880 115 347 190 691 236 1085 25 213 25 817 0 1030 -101 869 -375
1619 -845 2311 -693 1019 -1747 1754 -2937 2047 -404 100 -708 137 -1150 142
-176 1 -345 1 -375 -1z m545 -184 c674 -36 1302 -198 1890 -488 218 -108 335
-174 525 -300 632 -415 1171 -986 1545 -1637 148 -257 319 -642 410 -925 172
-533 254 -1152 225 -1698 -36 -691 -195 -1312 -488 -1907 -108 -218 -174 -335
-300 -525 -415 -632 -986 -1171 -1637 -1545 -257 -148 -642 -319 -925 -410
-653 -210 -1395 -280 -2070 -194 -1065 134 -2023 596 -2789 1343 -248 243
-471 514 -663 806 -126 190 -192 307 -300 525 -505 1024 -628 2205 -343 3320
210 823 629 1569 1229 2184 243 248 514 471 806 663 190 126 307 192 525 300
642 316 1343 483 2090 496 44 1 166 -3 270 -8z"/>
<path d="M9630 14689 c-798 -64 -1578 -333 -2233 -771 -607 -406 -1115 -947
-1472 -1569 -355 -616 -559 -1282 -615 -1998 -13 -172 -13 -528 0 -702 87
-1133 564 -2173 1365 -2974 801 -801 1841 -1278 2974 -1365 173 -13 529 -13
702 0 1133 87 2173 564 2974 1365 801 801 1278 1841 1365 2974 13 174 13 530
0 702 -56 716 -260 1382 -615 1998 -407 709 -1017 1319 -1726 1726 -616 355
-1282 559 -1998 615 -155 12 -567 11 -721 -1z m620 -179 c1108 -69 2102 -505
2893 -1269 733 -710 1207 -1654 1337 -2666 85 -663 20 -1352 -188 -1980 -548
-1658 -1993 -2854 -3717 -3075 -372 -48 -778 -48 -1150 0 -2033 261 -3644
1872 -3905 3905 -48 372 -48 778 0 1150 180 1400 1010 2641 2240 3346 754 432
1640 641 2490 589z"/>
<path d="M7660 10936 c-190 -42 -377 -147 -496 -279 -59 -65 -142 -193 -177
-272 -54 -125 -66 -192 -66 -375 0 -93 4 -182 9 -197 4 -16 16 -55 26 -88 53
-182 201 -378 373 -494 82 -56 175 -98 281 -127 l85 -24 2267 0 c2502 0 2315
-5 2478 63 238 98 414 274 513 511 21 49 39 100 42 115 3 14 9 40 14 58 5 17
10 96 10 176 2 119 -2 161 -19 228 -90 351 -344 608 -689 695 l-94 24 -2251
-1 c-1732 -1 -2264 -4 -2306 -13z m4555 -162 c255 -49 457 -202 564 -427 34
-73 45 -104 67 -207 14 -67 11 -199 -6 -285 -23 -107 -89 -247 -156 -330 -96
-118 -242 -213 -397 -258 l-72 -22 -2225 -2 c-2179 -2 -2227 -2 -2308 17 -289
69 -504 279 -576 562 -99 394 111 785 494 920 133 47 75 46 2370 46 1901 1
2175 -1 2245 -14z"/>
<path d="M7696 10644 c-220 -53 -406 -234 -472 -459 -22 -74 -24 -247 -5 -325
55 -226 240 -413 472 -477 60 -17 188 -18 2274 -18 2418 0 2251 -4 2390 60
235 108 375 328 375 588 0 287 -161 511 -447 620 l-58 22 -2235 2 c-1905 1
-2244 -1 -2294 -13z m1001 -352 c40 -97 108 -265 152 -372 l80 -195 45 -3 46
-3 0 -80 0 -79 -187 0 -188 0 -39 95 -39 95 -180 -2 -180 -3 -36 -92 -36 -92
-147 -1 -148 0 0 79 0 80 42 3 42 3 117 280 c65 154 118 286 118 293 1 8 -13
12 -39 12 l-40 0 0 80 0 80 273 0 272 0 72 -178z m1343 158 c19 -19 20 -33 20
-209 l0 -189 -32 -28 c-23 -19 -29 -29 -19 -32 7 -2 22 -13 32 -23 17 -17 19
-36 19 -193 l0 -175 -26 -20 c-26 -21 -36 -21 -485 -21 l-459 0 0 80 0 80 45
0 45 0 0 295 0 295 -45 0 -45 0 0 80 0 80 465 0 c452 0 466 -1 485 -20z m530
-344 c0 -300 2 -366 14 -375 9 -7 42 -11 88 -9 l73 3 3 373 2 372 215 0 215 0
0 -80 0 -80 -45 0 -45 0 0 -346 0 -346 -29 -29 -29 -29 -362 0 c-369 0 -389 2
-417 39 -9 12 -12 106 -13 364 l0 347 -45 0 -45 0 0 80 0 80 210 0 210 0 0
-364z m1505 339 c23 -22 25 -31 25 -125 l0 -100 -170 0 -170 0 0 45 0 45 -90
0 -90 0 0 -110 0 -110 266 0 265 0 -3 -240 -3 -240 -28 -27 -27 -28 -371 0
-371 0 -24 28 c-22 25 -24 37 -24 123 l0 94 160 0 160 0 0 -40 0 -40 90 0 91
0 -3 108 -3 107 -252 3 -253 2 0 220 c0 232 7 276 47 299 12 7 143 10 386 11
l368 0 24 -25z"/>
<path d="M8371 10148 c-5 -13 -25 -63 -45 -112 -20 -50 -36 -96 -36 -103 0
-10 24 -13 100 -13 55 0 100 3 100 8 0 16 -96 242 -103 242 -4 0 -11 -10 -16
-22z"/>
<path d="M9530 10220 l0 -90 90 0 90 0 0 90 0 90 -90 0 -90 0 0 -90z"/>
<path d="M9530 9815 l0 -95 90 0 90 0 0 95 0 95 -90 0 -90 0 0 -95z"/>
</g>
</svg>
