<?xml version="1.0" standalone="no"?>
<!DOCTYPE svg PUBLIC "-//W3C//DTD SVG 20010904//EN"
 "http://www.w3.org/TR/2001/REC-SVG-20010904/DTD/svg10.dtd">
<svg version="1.0" xmlns="http://www.w3.org/2000/svg"
 width="2000.000000pt" height="2006.000000pt" viewBox="0 0 2000.000000 2006.000000"
 preserveAspectRatio="xMidYMid meet">
<metadata>
Created by potrace 1.15, written by Peter Selinger 2001-2017
</metadata>
<g transform="translate(0.000000,2006.000000) scale(0.100000,-0.100000)"
fill="#000000" stroke="none">
<path d="M9115 20039 c-1734 -37 -3021 -194 -4100 -499 -1589 -450 -2749
-1258 -3558 -2478 -749 -1128 -1190 -2640 -1356 -4652 -115 -1383 -119 -3236
-10 -4635 206 -2661 862 -4437 2094 -5670 1246 -1248 3034 -1876 5810 -2040
792 -46 1760 -64 2662 -47 1026 20 1624 52 2318 128 2451 266 4067 996 5193
2345 963 1153 1523 2794 1722 5044 128 1451 132 3410 10 4870 -251 2989 -1092
4882 -2705 6086 -1194 890 -2829 1364 -5190 1504 -831 49 -1902 65 -2890 44z
m2045 -319 c1760 -53 3049 -238 4105 -592 1310 -438 2284 -1152 2984 -2188
329 -487 583 -1014 797 -1655 271 -815 448 -1760 544 -2905 100 -1201 114
-2860 35 -4195 -152 -2564 -690 -4289 -1726 -5530 -122 -146 -423 -450 -582
-587 -508 -438 -1111 -787 -1817 -1051 -936 -349 -2099 -557 -3585 -642 -631
-35 -846 -40 -1915 -40 -1069 0 -1284 5 -1915 40 -2192 125 -3697 519 -4840
1270 -676 444 -1237 1031 -1666 1745 -700 1167 -1086 2721 -1209 4865 -62
1091 -60 2526 5 3630 143 2408 633 4086 1547 5296 720 954 1730 1625 3033
2017 1295 390 2927 554 5310 536 314 -3 716 -9 895 -14z"/>
<path d="M9240 19529 c-2037 -35 -3474 -239 -4623 -655 -564 -205 -1079 -476
-1512 -798 -369 -275 -745 -649 -1027 -1021 -765 -1012 -1225 -2386 -1427
-4265 -113 -1047 -152 -2405 -110 -3820 79 -2669 506 -4444 1380 -5740 532
-789 1255 -1400 2154 -1817 1068 -497 2428 -767 4300 -853 899 -41 2351 -41
3250 0 2724 126 4427 646 5630 1722 1087 971 1743 2415 2029 4463 148 1055
214 2442 187 3880 -25 1270 -93 2144 -236 3013 -260 1576 -728 2721 -1484
3632 -128 155 -467 493 -621 620 -748 619 -1625 1022 -2810 1290 -1206 273
-2868 388 -5080 349z m1965 -169 c1156 -38 2047 -127 2846 -285 1821 -360
3069 -1106 3898 -2330 956 -1413 1370 -3443 1371 -6715 0 -2566 -262 -4375
-825 -5700 -438 -1033 -1077 -1819 -1935 -2383 -1083 -712 -2522 -1088 -4630
-1212 -610 -35 -838 -40 -1935 -40 -1098 0 -1310 4 -1925 41 -2119 124 -3559
502 -4645 1219 -1013 669 -1713 1643 -2153 2995 -422 1299 -611 3028 -588
5385 13 1420 88 2427 251 3372 430 2495 1470 4026 3290 4839 1184 528 2676
776 4965 824 453 10 1587 4 2015 -10z"/>
</g>
</svg>
