<?xml version="1.0" standalone="no"?>
<!DOCTYPE svg PUBLIC "-//W3C//DTD SVG 20010904//EN"
 "http://www.w3.org/TR/2001/REC-SVG-20010904/DTD/svg10.dtd">
<svg version="1.0" xmlns="http://www.w3.org/2000/svg"
 width="1600.000000pt" height="664.000000pt" viewBox="0 0 1600.000000 664.000000"
 preserveAspectRatio="xMidYMid meet">
<metadata>
Created by potrace 1.15, written by Peter Selinger 2001-2017
</metadata>
<g transform="translate(0.000000,664.000000) scale(0.100000,-0.100000)"
fill="#000000" stroke="none">
<path d="M2625 6263 c-431 -38 -632 -89 -945 -240 -135 -65 -357 -205 -426
-268 -6 -5 -35 -30 -65 -55 -73 -62 -174 -162 -240 -240 -105 -122 -152 -188
-257 -358 -27 -45 -133 -263 -151 -312 -8 -19 -19 -48 -26 -65 -7 -16 -18 -50
-25 -75 -6 -25 -15 -54 -20 -65 -12 -24 -47 -180 -66 -290 -8 -44 -17 -177
-20 -295 -9 -309 16 -502 99 -775 16 -55 33 -107 37 -115 5 -8 24 -55 45 -105
182 -443 537 -847 965 -1099 63 -37 252 -128 330 -159 86 -35 240 -82 315 -96
33 -7 74 -17 90 -22 17 -5 94 -16 170 -24 211 -22 10919 -22 11130 0 76 8 153
19 170 24 16 5 57 15 90 22 75 14 229 61 315 96 63 25 285 131 325 156 88 53
246 161 282 192 6 5 38 33 69 60 116 100 231 222 314 331 25 32 53 68 63 78 9
11 17 23 17 27 0 4 6 14 13 21 22 23 167 270 167 285 0 2 13 32 29 66 51 110
102 259 137 397 89 348 90 772 4 1118 -29 116 -112 365 -130 387 -5 6 -16 30
-26 55 -29 72 -151 287 -181 318 -7 7 -13 17 -13 21 0 4 -8 16 -17 27 -10 10
-38 46 -63 78 -83 109 -198 231 -314 331 -31 28 -63 55 -69 60 -37 32 -205
146 -282 192 -38 23 -283 143 -292 143 -4 0 -20 6 -34 14 -58 30 -340 108
-469 130 -19 3 -111 13 -205 21 -149 13 -837 15 -5485 13 -2923 -1 -5333 -3
-5355 -5z m10965 -406 c208 -36 387 -94 565 -183 592 -299 987 -852 1070
-1499 135 -1053 -592 -2017 -1645 -2182 -110 -17 -362 -18 -5580 -18 -5168 0
-5471 1 -5576 18 -478 76 -898 310 -1202 672 -594 706 -616 1727 -53 2455 307
396 768 667 1250 735 58 8 117 16 131 18 14 3 2480 4 5480 3 5201 -1 5460 -2
5560 -19z"/>
<path d="M2495 5515 c-237 -33 -473 -122 -667 -252 -357 -238 -587 -576 -690
-1013 -19 -84 -22 -122 -22 -325 0 -248 9 -309 71 -500 191 -589 720 -1020
1343 -1095 117 -14 10823 -14 10940 0 555 67 1035 413 1270 914 55 118 88 218
122 366 20 92 23 131 23 315 0 226 -12 310 -72 499 -184 585 -729 1027 -1348
1096 -145 16 -10854 11 -10970 -5z m2200 -525 c88 -217 276 -677 295 -720 20
-46 126 -304 220 -535 29 -71 85 -209 125 -305 40 -96 76 -185 79 -197 7 -21
13 -23 119 -25 l112 -3 0 -215 0 -215 -481 -3 -481 -2 -16 37 c-33 78 -76 182
-128 310 l-54 133 -434 -3 -433 -2 -96 -238 -95 -237 -381 2 -381 3 -3 217 -2
217 106 3 107 3 189 455 c104 250 212 509 239 575 28 66 59 140 69 165 109
258 111 229 -12 232 l-103 3 -3 228 -2 227 701 -2 701 -3 43 -105z m4835 -800
c0 -967 -1 -956 45 -974 9 -3 83 -6 164 -6 135 0 151 2 175 21 l26 20 0 925 0
924 555 0 555 0 -2 -227 -3 -228 -107 -3 -107 -3 -3 -832 c-3 -645 -7 -841
-17 -871 -18 -54 -83 -121 -139 -143 -44 -17 -103 -18 -892 -21 -604 -2 -864
0 -912 8 -91 16 -149 54 -185 122 l-28 53 -3 842 -2 842 -108 3 -107 3 -3 228
-2 227 550 0 550 0 0 -910z m3675 887 c55 -25 103 -73 131 -132 23 -48 24 -59
24 -282 l0 -233 -455 0 -455 0 0 105 0 105 -195 0 -195 0 0 -250 0 -250 655 0
656 0 -3 -592 c-3 -654 0 -624 -68 -702 -18 -20 -54 -49 -79 -64 l-46 -27
-895 0 -895 0 -40 22 c-47 25 -95 74 -121 123 -17 31 -19 64 -22 278 l-3 242
428 -2 428 -3 3 -102 3 -103 194 0 195 0 0 250 0 250 -627 2 -628 3 0 590 0
590 27 50 c39 75 103 127 175 144 21 5 418 9 903 8 810 -2 868 -3 905 -20z
m-5041 -20 c20 -16 49 -47 64 -70 l27 -41 3 -423 c2 -270 -1 -437 -8 -461 -15
-58 -64 -118 -117 -145 l-47 -24 29 -7 c38 -9 75 -41 111 -96 l29 -44 3 -388
c2 -261 -1 -401 -8 -429 -6 -23 -29 -60 -51 -84 -74 -80 10 -75 -1271 -75
l-1138 0 0 220 0 220 115 0 115 0 0 715 0 714 -112 3 -113 3 -3 223 -2 222
1168 -2 1169 -3 37 -28z"/>
<path d="M4014 4212 c-17 -42 -68 -168 -114 -280 -45 -111 -81 -205 -78 -207
3 -3 109 -4 235 -3 l231 3 -115 275 c-63 151 -117 278 -121 282 -4 4 -21 -28
-38 -70z"/>
<path d="M6930 4435 l0 -205 200 0 200 0 0 205 0 205 -200 0 -200 0 0 -205z"/>
<path d="M6930 3425 l0 -215 200 0 200 0 0 215 0 215 -200 0 -200 0 0 -215z"/>
<path d="M2846 1356 c-149 -56 -187 -281 -60 -364 20 -13 75 -32 122 -43 234
-52 272 -73 272 -151 0 -41 -45 -94 -87 -104 -15 -3 -45 -10 -65 -15 -40 -10
-111 1 -158 26 -40 21 -69 62 -76 107 l-7 38 -53 0 c-62 0 -63 -2 -41 -86 18
-70 59 -118 125 -151 51 -25 68 -28 162 -28 126 0 189 19 243 71 43 42 72 126
64 181 -9 55 -44 116 -81 141 -32 22 -143 54 -279 82 -79 16 -112 45 -111 100
2 57 40 96 110 110 112 23 210 -24 229 -110 6 -28 9 -30 57 -30 l51 0 -5 50
c-6 65 -44 121 -105 157 -44 25 -58 28 -158 31 -76 1 -122 -2 -149 -12z"/>
<path d="M9408 1361 c-69 -22 -135 -76 -181 -146 -30 -45 -67 -179 -67 -241 0
-131 69 -277 163 -340 115 -79 308 -68 404 23 l31 30 12 -44 c12 -41 14 -43
51 -43 l39 0 0 205 0 205 -170 0 -170 0 0 -50 0 -50 115 0 c113 0 115 0 115
-22 0 -85 -69 -176 -150 -199 -133 -37 -251 17 -296 136 -26 67 -26 219 -1
291 19 55 83 126 130 143 48 19 156 13 203 -9 38 -19 80 -67 97 -112 5 -14 18
-18 61 -18 l54 0 -7 33 c-19 79 -76 149 -156 187 -41 20 -68 25 -150 27 -55 1
-112 -2 -127 -6z"/>
<path d="M6650 1310 l0 -50 130 0 130 0 0 -330 0 -330 55 0 55 0 0 330 0 330
125 0 125 0 0 50 0 50 -310 0 -310 0 0 -50z"/>
<path d="M8310 980 l0 -380 55 0 55 0 0 178 c0 201 12 247 69 276 44 23 126
21 151 -4 19 -19 20 -33 20 -235 l0 -215 55 0 55 0 0 195 c0 229 -8 280 -53
323 -68 65 -193 68 -267 6 l-30 -26 0 131 0 131 -55 0 -55 0 0 -380z"/>
<path d="M5680 1225 l0 -75 -35 0 c-34 0 -35 -1 -35 -40 0 -39 1 -40 35 -40
l35 0 0 -187 c0 -104 5 -205 11 -226 14 -50 59 -72 130 -62 l49 7 0 39 c0 36
-2 39 -29 39 -57 0 -61 13 -61 211 l0 179 45 0 45 0 0 40 0 40 -45 0 -45 0 0
75 0 75 -50 0 -50 0 0 -75z"/>
<path d="M3556 1159 c-87 -21 -143 -78 -172 -175 -48 -165 10 -333 131 -379
32 -13 66 -16 128 -14 72 3 89 8 123 31 46 33 81 81 90 126 l7 32 -50 0 c-46
0 -50 -2 -65 -34 -17 -35 -85 -76 -127 -76 -32 0 -98 37 -117 65 -9 13 -18 42
-21 65 l-6 40 197 0 196 0 0 43 c0 55 -23 145 -49 189 -48 80 -150 114 -265
87z m145 -106 c28 -17 59 -75 59 -113 0 -19 -7 -20 -140 -20 -136 0 -140 1
-140 21 0 31 38 93 68 112 35 22 116 22 153 0z"/>
<path d="M4135 1164 c-114 -29 -178 -106 -194 -234 -21 -163 39 -296 148 -328
52 -16 154 -15 194 2 57 23 105 89 122 164 l7 32 -49 0 c-47 0 -49 -1 -68 -42
-21 -46 -74 -88 -109 -88 -32 1 -87 32 -108 60 -46 63 -44 225 4 291 27 37 54
49 112 49 53 0 90 -26 106 -75 11 -34 13 -35 62 -35 l50 0 -7 38 c-18 102 -82
160 -185 167 -36 2 -74 2 -85 -1z"/>
<path d="M5270 1159 c-14 -6 -40 -24 -57 -42 l-33 -31 0 32 c0 32 0 32 -50 32
l-50 0 0 -275 0 -275 55 0 55 0 0 191 0 191 39 39 c34 34 45 39 85 39 l46 0 0
55 0 55 -32 -1 c-18 0 -44 -5 -58 -10z"/>
<path d="M7367 1156 c-61 -17 -111 -65 -145 -136 -21 -46 -25 -70 -26 -150 -1
-109 19 -168 76 -221 48 -45 88 -59 171 -59 87 0 131 13 170 49 28 25 77 109
77 131 0 5 -22 10 -50 10 -27 0 -50 -4 -50 -9 0 -19 -54 -72 -87 -86 -47 -20
-65 -19 -118 6 -33 15 -49 32 -65 63 -11 23 -20 52 -20 64 0 22 1 22 200 22
l201 0 -7 63 c-13 117 -60 209 -125 243 -42 21 -145 27 -202 10z m146 -95 c32
-13 67 -62 74 -106 l6 -35 -147 0 c-159 0 -157 -1 -135 57 13 34 47 72 74 83
27 12 99 12 128 1z"/>
<path d="M7937 1156 c-76 -21 -127 -74 -157 -163 -26 -82 -26 -175 1 -248 41
-111 104 -154 225 -155 120 0 178 39 214 144 11 33 20 61 20 63 0 1 -22 3 -49
3 -49 0 -50 -1 -73 -46 -15 -31 -34 -52 -60 -65 -48 -24 -64 -24 -112 4 -75
43 -101 190 -52 300 28 65 61 82 138 75 42 -4 56 -11 75 -34 12 -15 23 -37 25
-49 3 -17 12 -20 56 -23 30 -2 52 1 52 7 0 6 -9 34 -20 64 -43 116 -145 160
-283 123z"/>
<path d="M10137 1154 c-71 -22 -129 -86 -152 -166 -48 -165 3 -326 120 -379
55 -25 186 -26 234 -1 45 22 109 99 117 140 l7 32 -50 0 c-46 0 -50 -2 -65
-34 -18 -36 -85 -76 -129 -76 -61 1 -129 65 -144 138 l-7 32 201 0 201 0 0 34
c0 125 -51 230 -133 272 -42 22 -144 26 -200 8z m164 -101 c28 -17 59 -75 59
-113 0 -19 -7 -20 -145 -20 -91 0 -145 4 -145 10 0 28 45 102 73 119 40 26
118 28 158 4z"/>
<path d="M10765 1156 c-17 -7 -43 -28 -58 -45 l-27 -33 0 36 0 36 -50 0 -50 0
0 -275 0 -275 54 0 55 0 3 196 3 196 37 34 c31 28 45 34 83 34 l45 0 0 55 0
55 -32 0 c-18 -1 -47 -7 -63 -14z"/>
<path d="M11129 1156 c-20 -7 -47 -23 -60 -35 l-24 -22 -3 25 c-3 24 -7 26
-53 26 l-49 0 0 -275 0 -275 49 0 49 0 4 183 c4 197 11 224 64 266 31 25 100
28 130 7 18 -13 19 -30 22 -235 l3 -221 50 0 49 0 0 175 c0 189 7 223 54 270
36 36 107 36 141 -1 25 -27 25 -28 25 -235 l0 -209 55 0 55 0 0 198 c0 222
-10 279 -58 325 -67 65 -185 61 -259 -7 l-26 -25 -26 28 c-44 49 -120 63 -192
37z"/>
<path d="M11946 1159 c-80 -19 -126 -67 -140 -146 l-5 -33 48 0 c46 0 49 2 57
33 7 24 20 37 57 56 53 26 91 24 145 -9 27 -17 32 -25 32 -60 0 -44 -18 -60
-69 -60 -29 0 -97 -12 -179 -32 -78 -19 -122 -95 -109 -190 11 -83 72 -128
173 -128 72 0 118 14 159 48 l29 24 8 -24 c10 -29 46 -48 88 -48 48 0 60 9 60
46 0 29 -3 34 -24 34 -13 0 -27 7 -30 16 -3 9 -6 98 -6 199 l0 184 -37 39
c-54 56 -153 75 -257 51z m194 -342 c0 -42 -5 -60 -22 -79 -31 -35 -100 -68
-141 -68 -64 0 -109 58 -87 114 13 35 41 47 150 67 52 9 96 17 98 18 1 0 2
-23 2 -52z"/>
<path d="M12576 1160 c-16 -5 -42 -21 -57 -36 l-29 -28 0 27 c0 26 -2 27 -50
27 l-50 0 0 -275 0 -275 50 0 50 0 0 178 c0 201 12 247 69 276 38 20 110 20
138 1 35 -24 43 -77 43 -272 l0 -183 50 0 50 0 0 213 c0 230 -7 265 -61 314
-42 38 -136 53 -203 33z"/>
<path d="M4492 922 c3 -224 3 -229 28 -264 33 -49 77 -68 155 -68 78 0 111 12
147 52 l28 32 0 -37 0 -37 45 0 45 0 0 275 0 275 -50 0 -50 0 0 -164 c0 -90
-3 -178 -6 -196 -8 -40 -70 -106 -107 -115 -37 -10 -74 1 -103 30 -24 24 -24
25 -24 235 l0 210 -56 0 -55 0 3 -228z"/>
<path d="M5430 875 l0 -275 55 0 55 0 0 275 0 275 -55 0 -55 0 0 -275z"/>
<path d="M5924 1058 c19 -51 46 -129 62 -173 15 -44 31 -84 34 -90 4 -5 15
-35 24 -66 9 -31 23 -69 31 -85 21 -41 19 -62 -11 -123 l-27 -53 -49 4 -49 5
3 -46 c3 -46 3 -46 43 -49 106 -9 132 16 207 200 43 105 188 497 205 551 5 16
0 18 -52 15 l-57 -3 -65 -195 c-35 -107 -68 -199 -72 -203 -4 -4 -38 85 -76
198 l-68 205 -58 0 -58 0 33 -92z"/>
<path d="M12930 1043 c21 -60 66 -184 99 -278 34 -93 61 -174 61 -178 0 -17
-40 -94 -55 -107 -9 -8 -30 -11 -55 -7 l-40 5 0 -44 c0 -37 4 -46 21 -53 30
-11 118 5 140 25 34 31 114 221 235 561 30 84 57 159 60 168 5 12 -3 15 -50
15 -45 0 -58 -4 -62 -17 -3 -10 -10 -27 -14 -38 -5 -11 -32 -92 -60 -179 -28
-88 -54 -165 -58 -173 -5 -7 -36 74 -76 197 l-69 210 -58 0 -58 0 39 -107z"/>
</g>
</svg>
